<svg width="24" height="24" viewBox="0 0 24 24" fill="none" xmlns="http://www.w3.org/2000/svg">

  <path
    d="M5.12413 9.93619C5.12413 11.9082 5.76439 13.7298 6.84296 15.2077L1.40285 20.651C0.865716 21.1881 0.865716 22.0602 1.40285 22.5972C1.93999 23.1343 2.81229 23.1343 3.34943 22.5972L8.78954 17.1539C10.2677 18.2322 12.0897 18.8724 14.0621 18.8724C18.9994 18.8724 23 14.8726 23 9.93619C23 4.9998 18.9994 1 14.0621 1C9.12471 1 5.12413 4.9998 5.12413 9.93619ZM14.0621 16.1228C10.6459 16.1228 7.87426 13.3517 7.87426 9.93619C7.87426 6.52068 10.6459 3.7496 14.0621 3.7496C17.4782 3.7496 20.2499 6.52068 20.2499 9.93619C20.2499 13.3517 17.4782 16.1228 14.0621 16.1228Z"
    fill="currentColor" />
  <path
    d="M10.5284 12V7.63636H12.0028C12.3452 7.63636 12.625 7.69815 12.8423 7.82173C13.0611 7.94389 13.223 8.10938 13.3281 8.31818C13.4332 8.52699 13.4858 8.75994 13.4858 9.01705C13.4858 9.27415 13.4332 9.50781 13.3281 9.71804C13.2244 9.92827 13.0639 10.0959 12.8466 10.2209C12.6293 10.3445 12.3509 10.4062 12.0114 10.4062H10.9545V9.9375H11.9943C12.2287 9.9375 12.4169 9.89702 12.5589 9.81605C12.701 9.73509 12.804 9.62571 12.8679 9.48793C12.9332 9.34872 12.9659 9.19176 12.9659 9.01705C12.9659 8.84233 12.9332 8.68608 12.8679 8.5483C12.804 8.41051 12.7003 8.30256 12.5568 8.22443C12.4134 8.14489 12.223 8.10511 11.9858 8.10511H11.0568V12H10.5284ZM14.5927 7.63636L15.7177 9.4517H15.7518L16.8768 7.63636H17.4989L16.1268 9.81818L17.4989 12H16.8768L15.7518 10.2188H15.7177L14.5927 12H13.9705L15.3768 9.81818L13.9705 7.63636H14.5927Z"
    fill="currentColor" />

</svg>